<?xml version="1.0" encoding="UTF-8" standalone="no"?><!DOCTYPE svg PUBLIC "-//W3C//DTD SVG 1.1//EN" "http://www.w3.org/Graphics/SVG/1.1/DTD/svg11.dtd"><svg width="100%" height="100%" viewBox="0 0 1280 230" version="1.1" xmlns="http://www.w3.org/2000/svg" xmlns:xlink="http://www.w3.org/1999/xlink" xml:space="preserve" xmlns:serif="http://www.serif.com/" style="fill-rule:evenodd;clip-rule:evenodd;stroke-linejoin:round;stroke-miterlimit:1.41421;"><g><path d="M223.665,99.867c0,-42.984 -24.373,-80.252 -60.053,-98.803l0,74.311l-102.56,0l0,-74.311c-35.675,18.551 -60.052,55.819 -60.052,98.803c0,42.997 24.377,80.269 60.052,98.826l0,-74.317l102.56,0l0,74.317c35.68,-18.557 60.053,-55.829 60.053,-98.826" style="fill-rule:nonzero;"/><path d="M260.04,6.633l55.495,0l0,62.839l51.847,0l0,-62.839l55.513,0l0,179.914l-55.513,0l0,-70.911l-51.847,0l0,70.911l-55.495,0" style="fill-rule:nonzero;"/><path d="M515.104,139.876c-0.755,13.6 -9.564,20.4 -20.908,20.4c-9.066,0 -15.619,-6.05 -15.619,-12.09c0,-8.818 5.798,-11.582 16.877,-14.104c6.796,-1.505 13.6,-3.267 19.65,-6.292l0,12.086Zm47.88,-36.257c0,-25.191 0.499,-51.147 -61.993,-51.147c-30.985,0 -65.763,6.04 -67.269,42.841l46.366,0c0.251,-5.711 3.276,-13.577 18.643,-13.577c8.054,0 16.373,3.29 16.373,12.182c0,8.369 -6.805,10.406 -13.6,11.673c-25.457,4.819 -73.836,3.291 -73.836,44.924c0,27.402 20.913,39.423 46.127,39.423c16.113,0 31.48,-3.514 42.059,-15.517l0.508,0c-0.247,3.253 0.513,8.543 1.762,12.085l50.919,0c-5.56,-8.324 -6.059,-19.43 -6.059,-29.259" style="fill-rule:nonzero;"/><path d="M658.744,105.459c-0.508,-5.299 -2.27,-9.578 -5.542,-12.278c-3.034,-2.764 -7.308,-4.27 -12.603,-4.27c-19.141,0 -21.924,16.589 -21.924,32.422c0,15.829 2.783,32.157 21.924,32.157c10.828,0 18.396,-8.805 19.399,-19.097l47.628,0c-4.787,35.575 -32.751,55.513 -68.038,55.513c-39.35,0 -70.911,-27.25 -70.911,-68.6c0,-41.313 31.561,-68.811 70.911,-68.811c34.271,0 63.503,16.904 66.528,52.964" style="fill-rule:nonzero;"/><path d="M708.857,6.633l49.989,0l0,86.932l31.754,-37.711l56.456,0l-46.622,49.271l53.93,81.386l-59.984,0l-26.711,-47.45l-8.823,9.582l0,37.868l-49.989,0" style="fill-rule:nonzero;"/><path d="M856.954,55.854l48.223,0l0,16.547l0.499,0c9.298,-13.102 22.624,-19.92 42.466,-19.92c23.48,0 44.947,14.374 44.947,44.397l0,89.669l-49.994,0l0,-68.509c0,-15.115 -1.767,-25.69 -16.314,-25.69c-8.544,0 -19.842,4.283 -19.842,25.178l0,69.021l-49.985,0" style="fill-rule:nonzero;"/><path d="M1047.5,106.346c2.256,-14.204 10.822,-22.056 25.667,-22.056c12.855,0 21.915,9.875 21.915,22.056l-47.582,0Zm95.453,25.883c0,-50.955 -22.414,-79.757 -74.307,-79.757c-41.318,0 -69.035,30.815 -69.035,68.957c0,43.913 31.506,68.514 73.314,68.514c29.722,0 57.187,-13.06 67.273,-41.162l-46.621,0c-4.004,6.246 -12.818,9.33 -20.881,9.33c-15.632,0 -24.185,-10.767 -25.466,-25.882" style="fill-rule:nonzero;"/><path d="M1235.65,176.526c-4.041,11.582 -8.557,26.45 -16.378,36.284c-13.097,16.387 -33.255,16.126 -52.657,16.126l-22.675,0l0,-39.826l11.573,0c5.047,0 11.596,0.513 15.138,-1.245c3.015,-1.514 4.777,-4.036 4.777,-9.829c0,-6.301 -19.146,-54.41 -21.915,-61.97l-22.18,-60.212l53.412,0l20.918,75.071l0.512,0l21.165,-75.071l51.655,0" style="fill-rule:nonzero;"/></g></svg>