<?xml version="1.0" encoding="UTF-8"?>
<svg width="1278px" height="228px" viewBox="0 0 1278 228" version="1.1" xmlns="http://www.w3.org/2000/svg" xmlns:xlink="http://www.w3.org/1999/xlink">
    <!-- Generator: Sketch 49.3 (51167) - http://www.bohemiancoding.com/sketch -->
    <title>logo</title>
    <desc>Created with Sketch.</desc>
    <defs></defs>
    <g id="Page-1" stroke="none" stroke-width="1" fill="none" fill-rule="evenodd">
        <g id="logo" fill="#FFFFFF">
            <path d="M222.665,98.867 C222.665,55.883 198.292,18.615 162.612,0.064 L162.612,74.375 L60.052,74.375 L60.052,0.064 C24.377,18.615 -1.42108547e-14,55.883 -1.42108547e-14,98.867 C-1.42108547e-14,141.864 24.377,179.136 60.052,197.693 L60.052,123.376 L162.612,123.376 L162.612,197.693 C198.292,179.136 222.665,141.864 222.665,98.867" id="Shape"></path>
            <polyline id="Shape" points="259.04 5.633 314.535 5.633 314.535 68.472 366.382 68.472 366.382 5.633 421.895 5.633 421.895 185.547 366.382 185.547 366.382 114.636 314.535 114.636 314.535 185.547 259.04 185.547"></polyline>
            <path d="M514.104,138.876 C513.349,152.476 504.54,159.276 493.196,159.276 C484.13,159.276 477.577,153.226 477.577,147.186 C477.577,138.368 483.375,135.604 494.454,133.082 C501.25,131.577 508.054,129.815 514.104,126.79 L514.104,138.876 Z M561.984,102.619 C561.984,77.428 562.483,51.472 499.991,51.472 C469.006,51.472 434.228,57.512 432.722,94.313 L479.088,94.313 C479.339,88.602 482.364,80.736 497.731,80.736 C505.785,80.736 514.104,84.026 514.104,92.918 C514.104,101.287 507.299,103.324 500.504,104.591 C475.047,109.41 426.668,107.882 426.668,149.515 C426.668,176.917 447.581,188.938 472.795,188.938 C488.908,188.938 504.275,185.424 514.854,173.421 L515.362,173.421 C515.115,176.674 515.875,181.964 517.124,185.506 L568.043,185.506 C562.483,177.182 561.984,166.076 561.984,156.247 L561.984,102.619 Z" id="Shape"></path>
            <path d="M657.744,104.459 C657.236,99.16 655.474,94.881 652.202,92.181 C649.168,89.417 644.894,87.911 639.599,87.911 C620.458,87.911 617.675,104.5 617.675,120.333 C617.675,136.162 620.458,152.49 639.599,152.49 C650.427,152.49 657.995,143.685 658.998,133.393 L706.626,133.393 C701.839,168.968 673.875,188.906 638.588,188.906 C599.238,188.906 567.677,161.656 567.677,120.306 C567.677,78.993 599.238,51.495 638.588,51.495 C672.859,51.495 702.091,68.399 705.116,104.459" id="Shape"></path>
            <polyline id="Shape" points="707.857 5.633 757.846 5.633 757.846 92.565 789.6 54.854 846.056 54.854 799.434 104.125 853.364 185.511 793.38 185.511 766.669 138.061 757.846 147.643 757.846 185.511 707.857 185.511"></polyline>
            <path d="M855.954,54.854 L904.177,54.854 L904.177,71.401 L904.676,71.401 C913.974,58.299 927.3,51.481 947.142,51.481 C970.622,51.481 992.089,65.855 992.089,95.878 L992.089,185.547 L942.095,185.547 L942.095,117.038 C942.095,101.923 940.328,91.348 925.781,91.348 C917.237,91.348 905.939,95.631 905.939,116.526 L905.939,185.547 L855.954,185.547" id="Shape"></path>
            <path d="M1046.5,105.346 C1048.756,91.142 1057.322,83.29 1072.167,83.29 C1085.022,83.29 1094.082,93.165 1094.082,105.346 L1046.5,105.346 Z M1141.953,131.229 C1141.953,80.274 1119.539,51.472 1067.646,51.472 C1026.328,51.472 998.611,82.287 998.611,120.429 C998.611,164.342 1030.117,188.943 1071.925,188.943 C1101.647,188.943 1129.112,175.883 1139.198,147.781 L1092.577,147.781 C1088.573,154.027 1079.759,157.111 1071.696,157.111 C1056.064,157.111 1047.511,146.344 1046.23,131.229 L1141.953,131.229 Z" id="Shape"></path>
            <path d="M1234.65,175.526 C1230.609,187.108 1226.093,201.976 1218.272,211.81 C1205.175,228.197 1185.017,227.936 1165.615,227.936 L1142.94,227.936 L1142.94,188.11 L1154.513,188.11 C1159.56,188.11 1166.109,188.623 1169.651,186.865 C1172.666,185.351 1174.428,182.829 1174.428,177.036 C1174.428,170.735 1155.282,122.626 1152.513,115.066 L1130.333,54.854 L1183.745,54.854 L1204.663,129.925 L1205.175,129.925 L1226.34,54.854 L1277.995,54.854" id="Shape"></path>
        </g>
    </g>
</svg>